<?xml version="1.0" encoding="UTF-8" standalone="no"?>
<!-- Created with Inkscape (http://www.inkscape.org/) -->

<svg
   version="1.1"
   id="svg1"
   width="409"
   height="123"
   viewBox="0 0 409 123"
   sodipodi:docname="images.png"
   xmlns:inkscape="http://www.inkscape.org/namespaces/inkscape"
   xmlns:sodipodi="http://sodipodi.sourceforge.net/DTD/sodipodi-0.dtd"
   xmlns="http://www.w3.org/2000/svg"
   xmlns:svg="http://www.w3.org/2000/svg">
  <defs
     id="defs1" />
  <sodipodi:namedview
     id="namedview1"
     pagecolor="#ffffff"
     bordercolor="#000000"
     borderopacity="0.25"
     inkscape:showpageshadow="2"
     inkscape:pageopacity="0.0"
     inkscape:pagecheckerboard="0"
     inkscape:deskcolor="#d1d1d1"
     showgrid="false">
    <inkscape:page
       x="0"
       y="0"
       width="409"
       height="123"
       id="page2"
       margin="0"
       bleed="0" />
  </sodipodi:namedview>
  <g
     inkscape:groupmode="layer"
     inkscape:label="Image"
     id="g1">
    <path
       style="fill:#000000"
       d="m 372.18347,121.12798 c -7.75967,-1.09082 -8.25312,-1.39969 -8.25312,-5.16606 0,-2.38124 0.34947,-2.91386 1.59763,-2.4349 7.71935,2.96219 27.38692,3.04493 30.30437,0.12748 2.65455,-2.65455 -0.18713,-3.7285 -12.07247,-4.56253 -6.23124,-0.43727 -12.22953,-1.12511 -13.32953,-1.52855 -8.66773,-3.17897 -8.5153,-12.556432 0.2531,-15.570322 4.11304,-1.41373 21.46935,-1.49257 27.2469,-0.12377 3.03678,0.71947 3.54281,1.27257 3.82344,4.17908 0.27231,2.82032 0.0518,3.24564 -1.39466,2.69057 -7.3505,-2.82065 -26.15642,-2.84907 -28.48522,-0.043 -1.75032,2.109012 1.95057,3.246942 14.05644,4.322012 5.775,0.51286 11.71397,1.40232 13.1977,1.97659 6.94016,2.68615 7.36063,10.85019 0.73587,14.28814 -4.25745,2.20942 -18.3888,3.15148 -27.68045,1.84531 z m -328.940033,-6.68551 6.81309,-6.6499 -3.055578,-3.05558 -3.055578,-3.05558 -5.442692,5.37509 -5.442692,5.37508 -1.441232,-3.40182 c -1.434258,-3.38537 -1.420008,-3.42382 2.944999,-7.94615 l 4.38623,-4.544312 -3.315359,-3.21337 -3.31536,-3.21338 -2.917418,3.04513 -2.917419,3.04513 -1.294164,-3.7381 c -1.112544,-3.21351 -1.081255,-3.85726 0.22296,-4.58713 2.276248,-1.27385 1.863291,-2.79764 -1.817775,-6.70748 -1.997451,-2.1216 -4.412802,-6.55001 -6.02263,-11.04217 l -2.687732,-7.5 29.038917,29 29.038917,29.000002 -4.666361,0.31092 c -4.292634,0.28602 -4.998132,-0.0147 -8.808837,-3.75461 l -4.142475,-4.06553 -3.910398,4.00461 c -3.641014,3.72874 -4.292529,4.00338 -9.45745,3.98683 l -5.547052,-0.0178 z m 86.686913,6.13752 c 0,-0.30137 4.1625,-7.04818 9.25,-14.99292 l 9.25,-14.444972 4,0.003 4,0.003 8.75,14.397812 c 4.8125,7.91881 8.75,14.66429 8.75,14.98997 0,0.32568 -1.70298,0.59214 -3.78439,0.59214 -3.14441,0 -4.08409,-0.50734 -5.55654,-3 l -1.77214,-3 h -10.91779 -10.91778 l -1.55136,2.99991 c -1.32893,2.56987 -2.12118,3 -5.52568,3 -2.18588,0 -3.97432,-0.24657 -3.97432,-0.54794 z m 26.13402,-16.70206 c -1.66709,-2.8875 -3.33419,-5.250002 -3.70468,-5.250002 -0.37049,0 -2.18963,2.362502 -4.04253,5.250002 l -3.36892,5.25 h 7.0736 7.0736 z m 24.40278,14 c -0.74863,-1.7875 -3.60338,-8.5375 -6.34388,-15 l -4.98273,-11.750002 h 4.18043 4.18043 l 3.95268,10.500002 c 2.17398,5.775 4.18299,10.49381 4.46448,10.48625 0.28148,-0.008 2.30049,-4.73256 4.48668,-10.5 l 3.97488,-10.486252 h 3.69749 3.69749 l 3.72298,9.750002 c 2.04764,5.3625 4.02892,10.09885 4.40285,10.52522 0.37393,0.42638 2.50128,-3.84862 4.72744,-9.5 l 4.04758,-10.275222 4.16542,-0.30936 4.16543,-0.30937 -1.6192,3.80937 c -0.89056,2.09515 -3.72027,8.868552 -6.28823,15.052002 l -4.66902,11.24263 -4.02511,0.007 -4.02512,0.007 -3.97488,-10.43549 c -2.18619,-5.73953 -4.24992,-10.12703 -4.58607,-9.75 -0.33615,0.37702 -2.3246,5.07299 -4.41878,10.43549 l -3.80761,9.75 h -3.88224 c -3.43409,0 -4.03937,-0.37517 -5.24339,-3.25 z m 43.7686,-2 c 1.85177,-2.8875 6.19929,-9.66051 9.66116,-15.05112 l 6.2943,-9.801132 4.03093,0.30113 c 3.95971,0.2958 4.14458,0.48665 10.46323,10.801122 3.53776,5.775 7.55791,12.4125 8.93366,14.75 l 2.50136,4.25 h -4.03848 c -3.42673,0 -4.30693,-0.45444 -5.81063,-3 l -1.77215,-3 h -10.8309 -10.8309 l -1.70349,2.99368 c -1.47448,2.59122 -2.27897,2.99452 -5.98422,3 l -4.28073,0.006 z m 23.4322,-12.25 c -1.73747,-3.025 -3.40596,-5.500002 -3.70777,-5.500002 -0.3018,0 -1.02059,0.7875 -1.59729,1.75 -0.57671,0.962502 -2.07166,3.437502 -3.32211,5.500002 l -2.27355,3.75 h 7.02988 7.02988 z m 23.2624,2.39315 V 90.914228 l 15.25,0.39575 c 11.62448,0.30166 15.97637,0.78471 18.30531,2.03185 3.12379,1.67278 5.44469,5.40537 5.44469,8.756432 0,2.69911 -4.53194,7.69538 -7.70188,8.49098 l -2.70778,0.67961 5.45483,4.88625 5.45483,4.88624 -5.03759,0.0433 c -4.7498,0.0408 -5.32109,-0.24465 -10,-4.99693 l -4.96241,-5.04021 -6,0.29021 -6,0.29022 -0.30479,4.75 c -0.30085,4.68854 -0.34937,4.75 -3.75,4.75 h -3.44521 z m 29.8,-2.09315 c 2.04471,-2.04471 1.36208,-4.787882 -1.45829,-5.860182 -1.46206,-0.55587 -6.74956,-0.88223 -11.75,-0.72525 l -9.09171,0.28543 -0.31037,3.750002 -0.31036,3.75 h 10.86036 c 7.11362,0 11.27436,-0.41399 12.06037,-1.2 z m 15.2,2.07841 V 90.884748 l 15.25,0.47577 c 8.42298,0.26278 16.59302,1.0172 18.25,1.68521 7.16501,2.88855 11.05208,9.700482 9.48931,16.629612 -1.99933,8.86478 -8.477,11.45259 -28.66745,11.45259 h -14.32186 z m 31.65457,7.19058 c 6.43605,-3.92444 4.9185,-12.07617 -2.74823,-14.762542 -1.87349,-0.65646 -7.34384,-1.21896 -12.15634,-1.25 l -8.75,-0.0564 v 9.000002 9 l 10.25,-0.004 c 8.3497,-0.003 10.83484,-0.36035 13.40457,-1.92727 z m -276.141663,-6.05588 -4.911908,-4.9869 -2.3005,2.16121 -2.300501,2.16121 v -4.47815 c 0,-3.802252 -0.526529,-4.988482 -3.488551,-7.859382 l -3.488551,-3.38124 -2.511449,2.35939 -2.511449,2.35938 v -4.98722 c 0,-4.15882 -0.465878,-5.43356 -2.804719,-7.67432 -3.27997,-3.14241 -3.920022,-3.24617 -6.36654,-1.0321 -1.744308,1.57858 -1.828741,1.45942 -1.828741,-2.5808 0,-4.13756 -0.330955,-4.5563 -14.269352,-18.05445 C 10.531815,47.464755 10.371104,47.259262 8.300611,40.228472 7.150543,36.323175 6.484251,33.138927 6.819963,33.152366 c 0.335712,0.01344 16.930178,16.325938 36.876592,36.250002 l 36.266207,36.225562 -1.235445,3.25 c -0.679494,1.7875 -1.491204,3.25 -1.803798,3.25 -0.312595,0 -2.778713,-2.2441 -5.480262,-4.98689 z m 9.275036,-13.669412 c -2.651542,-2.66161 -2.757526,-2.6812 -4.75,-0.87804 -2.017176,1.82552 -2.037945,1.80495 -2.037945,-2.01851 0,-3.10402 -0.725763,-4.60607 -3.694623,-7.64646 l -3.694624,-3.78364 -2.305376,2.16579 -2.305377,2.16579 v -4.47815 c 0,-3.80225 -0.526529,-4.98848 -3.488551,-7.85938 l -3.488551,-3.38124 -2.511449,2.35939 -2.511449,2.35938 v -4.95595 -4.95594 L 25.180348,38.507642 0.43034843,14.450619 -1.2723106,8.0752669 c -0.936463,-3.506443 -1.578156,-6.499854 -1.425984,-6.652025 0.576709,-0.57670998 88.6265096,86.9354661 88.5835396,88.0426461 -0.0248,0.63913 -0.58731,2.4144 -1.25,3.94507 l -1.2049,2.78302 z m 63.060677,-9.66718 c -9.60488,-2.72007 -13.40698,-7.51376 -12.60224,-15.88887 0.57716,-6.00654 4.04069,-10.01599 10.57582,-12.24273 5.99421,-2.04243 18.57393,-1.98873 25.06297,0.10699 4.84745,1.56555 5.11483,1.83253 5.11483,5.10699 0,2.90657 -0.27782,3.33728 -1.75,2.71303 -6.35121,-2.69309 -9.54992,-3.38898 -15.75,-3.42648 -11.99255,-0.0725 -18.20041,4.94913 -15.14833,12.2538 2.27849,5.45318 11.55002,8.07041 21.52333,6.07575 2.63043,-0.52608 3.125,-1.08 3.125,-3.5 v -2.875 h -9 c -8.93333,0 -9,-0.0185 -9,-2.5 v -2.5 h 13 13 v 6.98658 6.98658 l -3.75,1.60612 c -5.0432,2.15999 -18.51035,2.76556 -24.40138,1.09724 z m 72.58842,0.60042 c -3.23625,-0.29763 -4.41773,-0.97424 -5.80653,-3.32529 l -1.74358,-2.95165 -10.19347,-0.009 c -10.1762,-0.009 -10.19775,-0.004 -12.72748,3.07325 -2.14112,2.60436 -3.11243,3.03213 -6.26461,2.75901 l -3.7306,-0.32326 9.30852,-14.5 c 9.23524,-14.38586 9.33966,-14.50217 13.26461,-14.7766 l 3.9561,-0.27661 7.15091,11.77661 c 9.00242,14.8258 11.63854,19.32264 11.19787,19.1019 -0.19183,-0.0961 -2.17711,-0.34285 -4.41174,-0.54836 z m -11.44642,-12.02694 c -0.0119,-0.94929 -5.8948,-11.25 -6.42507,-11.25 -0.6404,0 -6.56555,9.94063 -6.56555,11.01503 0,0.54561 2.89942,0.98497 6.5,0.98497 3.575,0 6.49578,-0.3375 6.49062,-0.75 z m 64.00938,12.03877 -3.5,-0.37502 0.32097,-8.95687 c 0.17653,-4.92628 -0.0582,-8.95688 -0.5217,-8.95688 -0.46346,0 -3.3079,4.03582 -6.32097,8.96849 -5.45062,8.92316 -5.49902,8.96864 -9.57882,9 l -4.10052,0.0315 -5.89948,-9.54333 -5.89948,-9.54334 -0.28621,9.54334 -0.28621,9.54333 h -3.46379 -3.46379 v -15 -15 h 3.84501 c 4.52554,0 4.82835,0.30619 12.644,12.78503 3.19843,5.10677 6.16281,9.49979 6.58751,9.76227 0.42471,0.26248 4.00606,-4.70328 7.95857,-11.03503 l 7.18636,-11.51227 h 4.38928 4.38927 v 15.5 c 0,8.525 -0.1125,15.42436 -0.25,15.3319 -0.1375,-0.0925 -1.825,-0.33686 -3.75,-0.54313 z m 11.22327,-15.03877 0.27673,-14.75 18.25,-0.27256 18.25,-0.27255 v 3.02255 3.02256 h -14.5 -14.5 v 3.5 3.5 h 13.5 13.5 v 2.5 2.5 h -13.5 -13.5 v 3.5 3.5 h 14.5 14.5 v 2.5 2.5 h -18.52673 -18.52674 z m -195.223275,9.13673 c 0,-4.63152 0.3332,-5.2901 5.00405,-9.89071 l 5.00405,-4.9288 -2.55047,7.58568 c -1.41167,4.19866 -3.646,8.61489 -5.00405,9.89071 l -2.45358,2.30502 z m -11.999997,-10.588 c 0,-4.3786 0.164762,-4.59034 15.219757,-19.559527 8.370875,-8.323155 15.331645,-15.021136 15.468375,-14.884403 0.68841,0.688409 -3.81167,13.12542 -5.37829,14.864137 -0.99541,1.104763 -7.097345,6.958133 -13.559845,13.007493 l -11.749997,10.99883 z m -11,-11.95699 v -4.35616 L 87.974005,25.62072 C 102.29802,11.324687 113.80794,0.30293192 113.55161,1.1279319 c -0.25633,0.825 -1.22483,3.975 -2.15221,7 -1.53606,5.0103861 -3.30112,7.1306351 -19.827605,23.8174961 -9.977796,10.074622 -20.728947,20.58165 -23.891447,23.34894 l -5.75,5.03145 z M 147.93035,36.188297 V 24.127932 h -9 -9 v -3 -3 h 21.78302 21.78302 l -0.118,2.75 -0.11801,2.75 -8.63361,0.288475 -8.63362,0.288475 -0.2814,11.711525 -0.2814,11.711525 -3.75,0.310365 -3.75,0.310366 z m 32,-3.060365 v -15 h 3.4501 3.45009 l 0.29991,5.75 0.2999,5.75 12.75,0.279877 12.75,0.279877 v -6.029877 -6.029877 h 4 4 v 15 15 h -4 -4 v -6 -6 h -13 -13 v 6 6 h -3.5 -3.5 z m 48,0 v -15 h 18.5 18.5 v 3 3 h -14.5 -14.5 v 3 3 h 13.5 13.5 v 3 3 h -13.5 -13.5 v 3 3 h 14.5 14.5 v 3 3 h -18.5 -18.5 z"
       id="path1" />
  </g>
</svg>
