<?xml version="1.0" encoding="UTF-8" standalone="no"?>
<!-- Created with Inkscape (http://www.inkscape.org/) -->

<svg
   version="1.1"
   id="svg1"
   width="409"
   height="123"
   viewBox="0 0 409 123"
   sodipodi:docname="nuevo logo.svg"
   inkscape:version="1.4.2 (f4327f4, 2025-05-13)"
   xmlns:inkscape="http://www.inkscape.org/namespaces/inkscape"
   xmlns:sodipodi="http://sodipodi.sourceforge.net/DTD/sodipodi-0.dtd"
   xmlns="http://www.w3.org/2000/svg"
   xmlns:svg="http://www.w3.org/2000/svg">
  <defs
     id="defs1" />
  <sodipodi:namedview
     id="namedview1"
     pagecolor="#ffffff"
     bordercolor="#000000"
     borderopacity="0.25"
     inkscape:showpageshadow="2"
     inkscape:pageopacity="0.0"
     inkscape:pagecheckerboard="0"
     inkscape:deskcolor="#d1d1d1"
     showgrid="false"
     inkscape:zoom="2.9608802"
     inkscape:cx="204.66887"
     inkscape:cy="61.637077"
     inkscape:window-width="1920"
     inkscape:window-height="1017"
     inkscape:window-x="1272"
     inkscape:window-y="-8"
     inkscape:window-maximized="1"
     inkscape:current-layer="g1" />
  <g
     inkscape:groupmode="layer"
     inkscape:label="Image"
     id="g1">
    <path
       style="fill:#000000"
       d="M 117.53262,1.688687 114.15524,15.198183 65.521057,61.468208 V 52.687036 Z"
       id="path1" />
    <path
       style="fill:#000000"
       d="M 108.75145,33.436003 104.02312,48.296449 78.355078,71.60033 77.004129,63.83237 Z"
       id="path2" />
    <path
       style="fill:#000000"
       d="m 89.83815,83.42114 5.403799,-5.403799 4.052849,-12.496284 -10.807597,8.105698 z"
       id="path3" />
    <path
       style="fill:#000000"
       d="m 3.7151115,4.0528489 86.7985135,85.1098261 -2.364162,7.767961 -6.079273,-4.728324 -4.390586,3.715112 -0.337738,-8.781173 -7.092485,-6.417011 -4.728324,2.7019 0.337737,-8.105698 -7.092485,-5.741536 -4.390586,3.715111 -0.675475,-9.11891 L 4.7283237,15.198183 Z"
       id="path4" />
    <path
       style="fill:#000000"
       d="m 81.732453,113.14203 2.026424,-6.41701 -73.626755,-72.613542 4.390587,14.522709 27.018992,26.343517 v 8.443436 l 7.092486,-3.039637 6.079273,7.092485 -1.35095,7.092486 7.092486,-2.364162 6.417011,7.430223 -1.35095,7.430225 4.728324,-3.37738 z"
       id="path5" />
    <path
       style="fill:#000000"
       d="m 18.913295,64.507845 58.766309,57.415355 -11.145335,-0.33773 -6.754748,-6.75475 -8.443435,7.76796 -9.794385,-1.01321 11.820809,-12.49629 -6.41701,-5.74153 -9.794385,9.11891 -3.039637,-5.4038 8.443435,-8.781175 -6.754748,-6.41701 -6.079273,5.741536 -2.364162,-7.430223 4.052849,-3.715112 -7.767961,-7.430223 z"
       id="path6" />
    <text
       xml:space="preserve"
       style="text-align:start;writing-mode:lr-tb;direction:ltr;text-anchor:start;white-space:pre;inline-size:25.0207;fill:#000000"
       x="148.60446"
       y="28.369942"
       id="text6"
       transform="matrix(5.6755116,0,0,3.2839426,-708.64469,-44.868811)"><tspan
         x="148.60446"
         y="28.369942"
         id="tspan1">THE</tspan></text>
    <text
       xml:space="preserve"
       style="font-size:49.7278px;text-align:start;writing-mode:lr-tb;direction:ltr;text-anchor:start;fill:#000000;stroke-width:4.14398"
       x="101.1224"
       y="109.66735"
       id="text7"
       transform="scale(1.3097905,0.76348089)"><tspan
         sodipodi:role="line"
         id="tspan7"
         x="101.1224"
         y="109.66735"
         style="stroke-width:4.14398">GAME</tspan></text>
    <text
       xml:space="preserve"
       style="font-size:49.3142px;text-align:start;writing-mode:lr-tb;direction:ltr;text-anchor:start;fill:#000000;stroke-width:4.1095"
       x="109.46272"
       y="149.78371"
       id="text8"
       transform="scale(1.2254616,0.81601904)"><tspan
         sodipodi:role="line"
         id="tspan8"
         x="109.46272"
         y="149.78371"
         style="stroke-width:4.1095">AWARDS</tspan></text>
  </g>
</svg>
